<?xml version="1.0" encoding="UTF-8" standalone="no"?>
<svg
   xmlns:dc="http://purl.org/dc/elements/1.1/"
   xmlns:cc="http://creativecommons.org/ns#"
   xmlns:rdf="http://www.w3.org/1999/02/22-rdf-syntax-ns#"
   xmlns:svg="http://www.w3.org/2000/svg"
   xmlns="http://www.w3.org/2000/svg"
   xmlns:sodipodi="http://sodipodi.sourceforge.net/DTD/sodipodi-0.dtd"
   xmlns:inkscape="http://www.inkscape.org/namespaces/inkscape"
   width="256"
   height="256"
   viewBox="0 0 256 256"
   version="1.1"
   preserveAspectRatio="xMidYMid"
   id="svg1013"
   sodipodi:docname="prettier-eslint.svg"
   inkscape:version="1.0beta2 (2b71d25, 2019-12-03)"
   inkscape:export-filename="/Users/vestre/vs-code-prettier-eslint/src/icon.png"
   inkscape:export-xdpi="96"
   inkscape:export-ydpi="96">
  <metadata
     id="metadata1019">
    <rdf:RDF>
      <cc:Work
         rdf:about="">
        <dc:format>image/svg+xml</dc:format>
        <dc:type
           rdf:resource="http://purl.org/dc/dcmitype/StillImage" />
        <dc:title></dc:title>
      </cc:Work>
    </rdf:RDF>
  </metadata>
  <defs
     id="defs1017" />
  <sodipodi:namedview
     showguides="false"
     pagecolor="#ffffff"
     bordercolor="#666666"
     inkscape:document-rotation="0"
     borderopacity="1"
     objecttolerance="10"
     gridtolerance="10"
     guidetolerance="10"
     inkscape:pageopacity="0"
     inkscape:pageshadow="2"
     inkscape:window-width="1792"
     inkscape:window-height="1004"
     id="namedview1015"
     showgrid="false"
     inkscape:zoom="0.74666668"
     inkscape:cx="193.37735"
     inkscape:cy="111.29732"
     inkscape:window-x="0"
     inkscape:window-y="23"
     inkscape:window-maximized="1"
     inkscape:current-layer="svg1013"
     fit-margin-top="0"
     fit-margin-left="0"
     fit-margin-right="0"
     fit-margin-bottom="0" />
  <rect
     style="fill:#1a2b34;fill-opacity:1;stroke:none;stroke-width:0.141283"
     id="rect1319"
     width="256"
     height="256"
     x="0"
     y="0" />
  <path
     style="stroke-width:0.95"
     inkscape:connector-curvature="0"
     id="path1009"
     fill="#4B32C3"
     d="M 248.09587,123.22852 192.90698,27.215063 c -2.00471,-3.471561 -5.708,-6.032314 -9.71649,-6.032314 H 72.810819 c -4.009437,0 -7.713683,2.560753 -9.718402,6.032314 L 7.9035353,123.01679 c -2.0047183,3.47251 -2.0047183,7.85487 0,11.32739 l 55.1888817,95.22663 c 2.004719,3.47156 5.708965,5.24644 9.718402,5.24644 H 183.18954 c 4.00848,0 7.71273,-1.72147 9.71649,-5.19399 l 55.18889,-95.38208 c 2.00662,-3.47061 2.00662,-7.54111 9.5e-4,-11.01266 z m -45.69937,46.16984 c 0,1.41151 -0.84977,2.71717 -2.0734,3.42388 l -70.29865,40.55908 c -1.22267,0.70576 -2.75434,0.70576 -3.97701,0 L 55.694416,172.82224 c -1.222668,-0.70671 -2.078155,-2.01141 -2.078155,-3.42388 V 88.279245 c 0,-1.412467 0.843088,-2.717163 2.066711,-3.423874 L 125.97877,44.296286 c 1.22267,-0.70671 2.75244,-0.70671 3.97511,0 l 70.35778,40.559085 c 1.22362,0.706711 2.08484,2.011407 2.08484,3.423874 z" />
  <path
     style="fill:#8080f2;fill-opacity:1"
     inkscape:connector-curvature="0"
     d="m 77.4646,96.554961 48.5703,-28.041853 c 1.21547,-0.701999 2.71373,-0.701999 3.92919,0 l 48.57132,28.041853 c 1.21445,0.701999 1.96459,1.998691 1.96459,3.402687 v 56.083702 c 0,1.40299 -0.75014,2.70069 -1.96459,3.40369 l -48.57132,28.04185 c -1.21546,0.702 -2.71372,0.702 -3.92919,0 L 77.4646,159.44504 C 76.24914,158.74304 75.5,157.44534 75.5,156.04135 V 99.957648 c 0.001,-1.403996 0.75014,-2.700688 1.9646,-3.402687"
     fill="#8080F2"
     id="path933" />
  <g
     transform="matrix(0.92665145,0,0,0.92665145,9.3886144,31.451745)"
     id="g1568">
    <rect
       style="fill:#1a2b34;fill-opacity:1;stroke-width:0.132283"
       id="rect1523"
       width="102.51967"
       height="102.51967"
       x="76.740166"
       y="52.930641" />
    <g
       transform="matrix(0.39062499,0,0,0.39062499,78,54.190478)"
       id="g1265">
      <rect
         fill="#56B3B4"
         x="182.85715"
         y="48.761906"
         width="24.380953"
         height="12.190476"
         rx="5"
         id="rect1183" />
      <rect
         fill="#EA5E5E"
         x="0"
         y="243.80952"
         width="73.14286"
         height="12.190476"
         rx="5"
         id="rect1185" />
      <rect
         fill="#BF85BF"
         x="146.28572"
         y="146.28572"
         width="48.761906"
         height="12.190476"
         rx="5"
         id="rect1187" />
      <rect
         fill="#EA5E5E"
         x="73.14286"
         y="146.28572"
         width="60.952381"
         height="12.190476"
         rx="5"
         id="rect1189" />
      <rect
         fill="#56B3B4"
         x="0"
         y="146.28572"
         width="60.952381"
         height="12.190476"
         rx="5"
         id="rect1191" />
      <rect
         fill="#BF85BF"
         x="0"
         y="195.04762"
         width="73.14286"
         height="12.190476"
         rx="5"
         id="rect1193" />
      <rect
         fill="#BF85BF"
         x="0"
         y="97.523811"
         width="73.14286"
         height="12.190476"
         rx="5"
         id="rect1195" />
      <rect
         fill="#F7BA3E"
         x="60.952381"
         y="24.380953"
         width="134.09525"
         height="12.190476"
         rx="5"
         id="rect1197" />
      <rect
         fill="#EA5E5E"
         x="0"
         y="24.380953"
         width="48.761906"
         height="12.190476"
         rx="5"
         id="rect1199" />
      <rect
         fill="#F7BA3E"
         x="48.761906"
         y="219.42857"
         width="24.380953"
         height="12.190476"
         rx="5"
         id="rect1201" />
      <rect
         fill="#56B3B4"
         x="48.761906"
         y="73.14286"
         width="24.380953"
         height="12.190476"
         rx="5"
         id="rect1203" />
      <rect
         fill="#56B3B4"
         x="0"
         y="219.42857"
         width="36.57143"
         height="12.190476"
         rx="5"
         id="rect1205" />
      <rect
         fill="#F7BA3E"
         x="0"
         y="73.14286"
         width="36.57143"
         height="12.190476"
         rx="5"
         id="rect1207" />
      <rect
         fill="#D0D4D8"
         opacity="0.5"
         x="158.4762"
         y="219.42857"
         width="24.380953"
         height="12.190476"
         rx="5"
         id="rect1209" />
      <rect
         fill="#D0D4D8"
         opacity="0.5"
         x="85.333336"
         y="219.42857"
         width="60.952381"
         height="12.190476"
         rx="5"
         id="rect1211" />
      <rect
         fill="#D0D4D8"
         opacity="0.5"
         x="195.04762"
         y="219.42857"
         width="60.952381"
         height="12.190476"
         rx="5"
         id="rect1213" />
      <rect
         fill="#56B3B4"
         x="97.523811"
         y="121.90476"
         width="109.71429"
         height="12.190476"
         rx="5"
         id="rect1215" />
      <rect
         fill="#F7BA3E"
         x="36.57143"
         y="121.90476"
         width="48.761906"
         height="12.190476"
         rx="5"
         id="rect1217" />
      <rect
         fill="#EA5E5E"
         x="0"
         y="121.90476"
         width="24.380953"
         height="12.190476"
         rx="5"
         id="rect1219" />
      <rect
         fill="#BF85BF"
         x="109.71429"
         y="48.761906"
         width="60.952381"
         height="12.190476"
         rx="5"
         id="rect1221" />
      <rect
         fill="#56B3B4"
         x="0"
         y="48.761906"
         width="97.523811"
         height="12.190476"
         rx="5"
         id="rect1223" />
      <rect
         fill="#F7BA3E"
         x="36.57143"
         y="170.66667"
         width="121.90476"
         height="12.190476"
         rx="5"
         id="rect1225" />
      <rect
         fill="#BF85BF"
         x="0"
         y="170.66667"
         width="24.380953"
         height="12.190476"
         rx="5"
         id="rect1227" />
      <rect
         fill="#EA5E5E"
         x="146.28572"
         y="73.14286"
         width="73.14286"
         height="12.190476"
         rx="5"
         id="rect1229" />
      <rect
         fill="#F7BA3E"
         x="146.28572"
         y="97.523811"
         width="73.14286"
         height="12.190476"
         rx="5"
         id="rect1231" />
      <rect
         fill="#56B3B4"
         x="0"
         y="0"
         width="158.4762"
         height="12.190476"
         rx="5"
         id="rect1233" />
      <rect
         fill="#D0D4D8"
         opacity="0.5"
         x="170.66667"
         y="0"
         width="85.333336"
         height="12.190476"
         rx="5"
         id="rect1235" />
      <rect
         fill="#D0D4D8"
         opacity="0.5"
         x="170.66667"
         y="170.66667"
         width="36.57143"
         height="12.190476"
         rx="5"
         id="rect1237" />
      <rect
         fill="#D0D4D8"
         opacity="0.5"
         x="219.42857"
         y="170.66667"
         width="36.57143"
         height="12.190476"
         rx="5"
         id="rect1239" />
      <rect
         fill="#D0D4D8"
         opacity="0.5"
         x="207.2381"
         y="146.28572"
         width="48.761906"
         height="12.190476"
         rx="5"
         id="rect1241" />
      <rect
         fill="#D0D4D8"
         opacity="0.5"
         x="207.2381"
         y="24.380953"
         width="48.761906"
         height="12.190476"
         rx="5"
         id="rect1243" />
      <rect
         fill="#D0D4D8"
         opacity="0.5"
         x="219.42857"
         y="121.90476"
         width="36.57143"
         height="12.190476"
         rx="5"
         id="rect1245" />
      <rect
         fill="#D0D4D8"
         opacity="0.5"
         x="219.42857"
         y="48.761906"
         width="36.57143"
         height="12.190476"
         rx="5"
         id="rect1247" />
      <rect
         fill="#D0D4D8"
         opacity="0.5"
         x="231.61905"
         y="73.14286"
         width="24.380953"
         height="12.190476"
         rx="5"
         id="rect1249" />
      <rect
         fill="#D0D4D8"
         opacity="0.5"
         x="231.61905"
         y="97.523811"
         width="24.380953"
         height="12.190476"
         rx="5"
         id="rect1251" />
      <rect
         fill="#D0D4D8"
         opacity="0.5"
         x="134.09525"
         y="195.04762"
         width="121.90476"
         height="12.190476"
         rx="5"
         id="rect1253" />
      <rect
         fill="#D0D4D8"
         opacity="0.5"
         x="85.333336"
         y="195.04762"
         width="36.57143"
         height="12.190476"
         rx="5"
         id="rect1255" />
      <rect
         fill="#D0D4D8"
         opacity="0.5"
         x="182.85715"
         y="243.80952"
         width="73.14286"
         height="12.190476"
         rx="5"
         id="rect1257" />
      <rect
         fill="#D0D4D8"
         opacity="0.5"
         x="85.333336"
         y="243.80952"
         width="85.333336"
         height="12.190476"
         rx="5"
         id="rect1259" />
      <rect
         fill="#D0D4D8"
         opacity="0.5"
         x="85.333336"
         y="73.14286"
         width="48.761906"
         height="12.190476"
         rx="5"
         id="rect1261" />
      <rect
         fill="#D0D4D8"
         opacity="0.5"
         x="85.333336"
         y="97.523811"
         width="48.761906"
         height="12.190476"
         rx="5"
         id="rect1263" />
    </g>
  </g>
</svg>
